{
    "asset" : {
        "generator" : "Khronos glTF Blender I/O v1.6.16",
        "version" : "2.0"
    },
    "scene" : 0,
    "scenes" : [
        {
            "name" : "Scene",
            "nodes" : [
                0,
                1,
                2,
                3,
                4
            ]
        }
    ],
    "nodes" : [
        {
            "name" : "Light.001",
            "rotation" : [
                0.16907575726509094,
                0.7558803558349609,
                -0.27217137813568115,
                0.570947527885437
            ],
            "translation" : [
                4.076245307922363,
                5.903861999511719,
                -1.0054539442062378
            ]
        },
        {
            "name" : "Camera.001",
            "rotation" : [
                0.483536034822464,
                0.33687159419059753,
                -0.20870360732078552,
                0.7804827094078064
            ],
            "translation" : [
                7.358891487121582,
                4.958309173583984,
                6.925790786743164
            ]
        },
        {
            "mesh" : 0,
            "name" : "19476_Bird_with_wings_above_head_v1_NEW",
            "scale" : [
                1,
                1,
                0.6021595001220703
            ],
            "translation" : [
                -9.920021057128906,
                0,
                0
            ]
        },
        {
            "name" : "Light",
            "rotation" : [
                0.16907575726509094,
                0.7558803558349609,
                -0.27217137813568115,
                0.570947527885437
            ],
            "translation" : [
                4.076245307922363,
                5.903861999511719,
                -1.0054539442062378
            ]
        },
        {
            "name" : "Camera",
            "rotation" : [
                0.483536034822464,
                0.33687159419059753,
                -0.20870360732078552,
                0.7804827094078064
            ],
            "translation" : [
                7.358891487121582,
                4.958309173583984,
                6.925790786743164
            ]
        }
    ],
    "materials" : [
        {
            "doubleSided" : true,
            "name" : "_19476_Bird_with_wings_above_head_v119476_Bird_with_wings_above",
            "pbrMetallicRoughness" : {
                "baseColorFactor" : [
                    0.41093844175338745,
                    0.41093844175338745,
                    0.41093844175338745,
                    1
                ],
                "metallicFactor" : 0,
                "roughnessFactor" : 0.5
            }
        }
    ],
    "meshes" : [
        {
            "name" : "19476_Bird_with_wings_above_head_v1_NEW",
            "primitives" : [
                {
                    "attributes" : {
                        "POSITION" : 0,
                        "NORMAL" : 1
                    },
                    "indices" : 2,
                    "material" : 0
                }
            ]
        }
    ],
    "accessors" : [
        {
            "bufferView" : 0,
            "componentType" : 5126,
            "count" : 47587,
            "max" : [
                15.111900329589844,
                17.85569953918457,
                -6.229000091552734
            ],
            "min" : [
                2.325900077819824,
                0.006800000090152025,
                -9.50730037689209
            ],
            "type" : "VEC3"
        },
        {
            "bufferView" : 1,
            "componentType" : 5126,
            "count" : 47587,
            "type" : "VEC3"
        },
        {
            "bufferView" : 2,
            "componentType" : 5123,
            "count" : 241776,
            "type" : "SCALAR"
        }
    ],
    "bufferViews" : [
        {
            "buffer" : 0,
            "byteLength" : 571044,
            "byteOffset" : 0
        },
        {
            "buffer" : 0,
            "byteLength" : 571044,
            "byteOffset" : 571044
        },
        {
            "buffer" : 0,
            "byteLength" : 483552,
            "byteOffset" : 1142088
        }
    ],
    "buffers" : [
        {
            "byteLength" : 1625640,
            "uri" : "data:application/octet-stream;base64,"
        }
    ]
}
