{
    "asset" : {
        "generator" : "Khronos glTF Blender I/O v1.6.16",
        "version" : "2.0"
    },
    "scene" : 0,
    "scenes" : [
        {
            "name" : "Scene",
            "nodes" : [
                0,
                1,
                2,
                3,
                4
            ]
        }
    ],
    "nodes" : [
        {
            "mesh" : 0,
            "name" : "rounds.003_Torus.005",
            "rotation" : [
                0.7071068286895752,
                0,
                0,
                0.7071067094802856
            ],
            "scale" : [
                0.02117626927793026,
                0.02117626927793026,
                0.02117626927793026
            ],
            "translation" : [
                0.4425976574420929,
                0.6410397887229919,
                -0.10917192697525024
            ]
        },
        {
            "mesh" : 1,
            "name" : "rounds.002_Torus.004",
            "rotation" : [
                0.7071068286895752,
                0,
                0,
                0.7071067094802856
            ],
            "scale" : [
                0.02117626927793026,
                0.02117626927793026,
                0.02117626927793026
            ],
            "translation" : [
                0.4425976574420929,
                0.6410397887229919,
                -0.10917192697525024
            ]
        },
        {
            "mesh" : 2,
            "name" : "rounds.001_Torus.000",
            "rotation" : [
                0.7071068286895752,
                0,
                0,
                0.7071067094802856
            ],
            "scale" : [
                0.02117626927793026,
                0.02117626927793026,
                0.02117626927793026
            ],
            "translation" : [
                0.4425976574420929,
                0.6410397887229919,
                -0.10917192697525024
            ]
        },
        {
            "mesh" : 3,
            "name" : "rounds_Torus.003",
            "rotation" : [
                0.7071068286895752,
                0,
                0,
                0.7071067094802856
            ],
            "scale" : [
                0.02117626927793026,
                0.02117626927793026,
                0.02117626927793026
            ],
            "translation" : [
                0.4425976574420929,
                0.6410397887229919,
                -0.10917192697525024
            ]
        },
        {
            "mesh" : 4,
            "name" : "Plane.001",
            "rotation" : [
                0.7071068286895752,
                0,
                0,
                0.7071067094802856
            ],
            "scale" : [
                0.02117626927793026,
                0.02117626927793026,
                0.02117626927793026
            ],
            "translation" : [
                0.4425976574420929,
                0.6410397887229919,
                -0.10917192697525024
            ]
        }
    ],
    "materials" : [
        {
            "doubleSided" : true,
            "name" : "green-plastic",
            "pbrMetallicRoughness" : {
                "baseColorFactor" : [
                    0.02407050132751465,
                    0.14596332609653473,
                    0.8000000715255737,
                    1
                ],
                "metallicFactor" : 0,
                "roughnessFactor" : 0.5
            }
        },
        {
            "doubleSided" : true,
            "name" : "blue-plastic",
            "pbrMetallicRoughness" : {
                "baseColorFactor" : [
                    0.07032730430364609,
                    0.8000000715255737,
                    0.06568038463592529,
                    1
                ],
                "metallicFactor" : 0,
                "roughnessFactor" : 0.5
            }
        },
        {
            "doubleSided" : true,
            "name" : "yellow-plastic",
            "pbrMetallicRoughness" : {
                "baseColorFactor" : [
                    0.8000000715255737,
                    0.7920311093330383,
                    0.02306201308965683,
                    1
                ],
                "metallicFactor" : 0,
                "roughnessFactor" : 0.5
            }
        },
        {
            "doubleSided" : true,
            "name" : "pink-plastic",
            "pbrMetallicRoughness" : {
                "baseColorFactor" : [
                    0.8000000715255737,
                    0.11541363596916199,
                    0.4832730293273926,
                    1
                ],
                "metallicFactor" : 0,
                "roughnessFactor" : 0.5
            }
        },
        {
            "doubleSided" : true,
            "name" : "water_normal",
            "pbrMetallicRoughness" : {
                "baseColorFactor" : [
                    0.3830015957355499,
                    0.7771373391151428,
                    0.8000000715255737,
                    1
                ],
                "metallicFactor" : 0,
                "roughnessFactor" : 0.5
            }
        }
    ],
    "meshes" : [
        {
            "name" : "rounds.003_Torus.005",
            "primitives" : [
                {
                    "attributes" : {
                        "POSITION" : 0,
                        "NORMAL" : 1,
                        "TEXCOORD_0" : 2
                    },
                    "indices" : 3,
                    "material" : 0
                }
            ]
        },
        {
            "name" : "rounds.002_Torus.004",
            "primitives" : [
                {
                    "attributes" : {
                        "POSITION" : 4,
                        "NORMAL" : 5,
                        "TEXCOORD_0" : 6
                    },
                    "indices" : 3,
                    "material" : 1
                }
            ]
        },
        {
            "name" : "rounds.001_Torus.000",
            "primitives" : [
                {
                    "attributes" : {
                        "POSITION" : 7,
                        "NORMAL" : 8,
                        "TEXCOORD_0" : 9
                    },
                    "indices" : 3,
                    "material" : 2
                }
            ]
        },
        {
            "name" : "rounds_Torus.003",
            "primitives" : [
                {
                    "attributes" : {
                        "POSITION" : 10,
                        "NORMAL" : 11,
                        "TEXCOORD_0" : 12
                    },
                    "indices" : 3,
                    "material" : 3
                }
            ]
        },
        {
            "name" : "Plane.001",
            "primitives" : [
                {
                    "attributes" : {
                        "POSITION" : 13,
                        "NORMAL" : 14,
                        "TEXCOORD_0" : 15
                    },
                    "indices" : 16,
                    "material" : 4
                }
            ]
        }
    ],
    "accessors" : [
        {
            "bufferView" : 0,
            "componentType" : 5126,
            "count" : 320,
            "max" : [
                82.51238250732422,
                82.51239013671875,
                32.477783203125
            ],
            "min" : [
                -82.51238250732422,
                -82.51239013671875,
                19.48539924621582
            ],
            "type" : "VEC3"
        },
        {
            "bufferView" : 1,
            "componentType" : 5126,
            "count" : 320,
            "type" : "VEC3"
        },
        {
            "bufferView" : 2,
            "componentType" : 5126,
            "count" : 320,
            "type" : "VEC2"
        },
        {
            "bufferView" : 3,
            "componentType" : 5123,
            "count" : 1920,
            "type" : "SCALAR"
        },
        {
            "bufferView" : 4,
            "componentType" : 5126,
            "count" : 320,
            "max" : [
                82.51238250732422,
                82.51239013671875,
                45.471282958984375
            ],
            "min" : [
                -82.51238250732422,
                -82.51239013671875,
                32.47889709472656
            ],
            "type" : "VEC3"
        },
        {
            "bufferView" : 5,
            "componentType" : 5126,
            "count" : 320,
            "type" : "VEC3"
        },
        {
            "bufferView" : 6,
            "componentType" : 5126,
            "count" : 320,
            "type" : "VEC2"
        },
        {
            "bufferView" : 7,
            "componentType" : 5126,
            "count" : 320,
            "max" : [
                82.51238250732422,
                82.51239013671875,
                19.48969078063965
            ],
            "min" : [
                -82.51238250732422,
                -82.51239013671875,
                6.497306823730469
            ],
            "type" : "VEC3"
        },
        {
            "bufferView" : 8,
            "componentType" : 5126,
            "count" : 320,
            "type" : "VEC3"
        },
        {
            "bufferView" : 9,
            "componentType" : 5126,
            "count" : 320,
            "type" : "VEC2"
        },
        {
            "bufferView" : 10,
            "componentType" : 5126,
            "count" : 320,
            "max" : [
                82.51238250732422,
                82.51239013671875,
                6.49619197845459
            ],
            "min" : [
                -82.51238250732422,
                -82.51239013671875,
                -6.49619197845459
            ],
            "type" : "VEC3"
        },
        {
            "bufferView" : 11,
            "componentType" : 5126,
            "count" : 320,
            "type" : "VEC3"
        },
        {
            "bufferView" : 12,
            "componentType" : 5126,
            "count" : 320,
            "type" : "VEC2"
        },
        {
            "bufferView" : 13,
            "componentType" : 5126,
            "count" : 1041,
            "max" : [
                76.00465393066406,
                75.79566955566406,
                19.300697326660156
            ],
            "min" : [
                -75.53742218017578,
                -75.74639892578125,
                12.5819730758667
            ],
            "type" : "VEC3"
        },
        {
            "bufferView" : 14,
            "componentType" : 5126,
            "count" : 1041,
            "type" : "VEC3"
        },
        {
            "bufferView" : 15,
            "componentType" : 5126,
            "count" : 1041,
            "type" : "VEC2"
        },
        {
            "bufferView" : 16,
            "componentType" : 5123,
            "count" : 5496,
            "type" : "SCALAR"
        }
    ],
    "bufferViews" : [
        {
            "buffer" : 0,
            "byteLength" : 3840,
            "byteOffset" : 0
        },
        {
            "buffer" : 0,
            "byteLength" : 3840,
            "byteOffset" : 3840
        },
        {
            "buffer" : 0,
            "byteLength" : 2560,
            "byteOffset" : 7680
        },
        {
            "buffer" : 0,
            "byteLength" : 3840,
            "byteOffset" : 10240
        },
        {
            "buffer" : 0,
            "byteLength" : 3840,
            "byteOffset" : 14080
        },
        {
            "buffer" : 0,
            "byteLength" : 3840,
            "byteOffset" : 17920
        },
        {
            "buffer" : 0,
            "byteLength" : 2560,
            "byteOffset" : 21760
        },
        {
            "buffer" : 0,
            "byteLength" : 3840,
            "byteOffset" : 24320
        },
        {
            "buffer" : 0,
            "byteLength" : 3840,
            "byteOffset" : 28160
        },
        {
            "buffer" : 0,
            "byteLength" : 2560,
            "byteOffset" : 32000
        },
        {
            "buffer" : 0,
            "byteLength" : 3840,
            "byteOffset" : 34560
        },
        {
            "buffer" : 0,
            "byteLength" : 3840,
            "byteOffset" : 38400
        },
        {
            "buffer" : 0,
            "byteLength" : 2560,
            "byteOffset" : 42240
        },
        {
            "buffer" : 0,
            "byteLength" : 12492,
            "byteOffset" : 44800
        },
        {
            "buffer" : 0,
            "byteLength" : 12492,
            "byteOffset" : 57292
        },
        {
            "buffer" : 0,
            "byteLength" : 8328,
            "byteOffset" : 69784
        },
        {
            "buffer" : 0,
            "byteLength" : 10992,
            "byteOffset" : 78112
        }
    ],
    "buffers" : [
        {
            "byteLength" : 89104,
            "uri" : "data:application/octet-stream;base64,"
        }
    ]
}
