{
    "asset" : {
        "generator" : "Khronos glTF Blender I/O v1.6.16",
        "version" : "2.0"
    },
    "scene" : 0,
    "scenes" : [
        {
            "name" : "Scene",
            "nodes" : [
                0,
                1,
                2,
                3
            ]
        }
    ],
    "nodes" : [
        {
            "name" : "Camera.001",
            "rotation" : [
                0.483536034822464,
                0.33687159419059753,
                -0.20870360732078552,
                0.7804827094078064
            ],
            "translation" : [
                7.358891487121582,
                4.958309173583984,
                6.925790786743164
            ]
        },
        {
            "mesh" : 0,
            "name" : "15681_CreatureHobbyBox_Eyes_v1",
            "scale" : [
                0.12988227605819702,
                0.12988227605819702,
                0.14807438850402832
            ]
        },
        {
            "name" : "Light",
            "rotation" : [
                0.16907575726509094,
                0.7558803558349609,
                -0.27217137813568115,
                0.570947527885437
            ],
            "translation" : [
                4.076245307922363,
                5.903861999511719,
                -1.0054539442062378
            ]
        },
        {
            "name" : "Camera",
            "rotation" : [
                0.483536034822464,
                0.33687159419059753,
                -0.20870360732078552,
                0.7804827094078064
            ],
            "translation" : [
                7.358891487121582,
                4.958309173583984,
                6.925790786743164
            ]
        }
    ],
    "materials" : [
        {
            "doubleSided" : true,
            "name" : "Material.001",
            "pbrMetallicRoughness" : {
                "baseColorFactor" : [
                    0.011087605729699135,
                    0.011087605729699135,
                    0.011087605729699135,
                    1
                ],
                "metallicFactor" : 0,
                "roughnessFactor" : 0.5
            }
        }
    ],
    "meshes" : [
        {
            "name" : "15681_CreatureHobbyBox_Eyes_v1",
            "primitives" : [
                {
                    "attributes" : {
                        "POSITION" : 0,
                        "NORMAL" : 1,
                        "TEXCOORD_0" : 2
                    },
                    "indices" : 3,
                    "material" : 0
                }
            ]
        }
    ],
    "accessors" : [
        {
            "bufferView" : 0,
            "componentType" : 5126,
            "count" : 62846,
            "max" : [
                23.841299057006836,
                16.387500762939453,
                9.175399780273438
            ],
            "min" : [
                -26.899599075317383,
                0.017899999395012856,
                -24.738100051879883
            ],
            "type" : "VEC3"
        },
        {
            "bufferView" : 1,
            "componentType" : 5126,
            "count" : 62846,
            "type" : "VEC3"
        },
        {
            "bufferView" : 2,
            "componentType" : 5126,
            "count" : 62846,
            "type" : "VEC2"
        },
        {
            "bufferView" : 3,
            "componentType" : 5123,
            "count" : 285216,
            "type" : "SCALAR"
        }
    ],
    "bufferViews" : [
        {
            "buffer" : 0,
            "byteLength" : 754152,
            "byteOffset" : 0
        },
        {
            "buffer" : 0,
            "byteLength" : 754152,
            "byteOffset" : 754152
        },
        {
            "buffer" : 0,
            "byteLength" : 502768,
            "byteOffset" : 1508304
        },
        {
            "buffer" : 0,
            "byteLength" : 570432,
            "byteOffset" : 2011072
        }
    ],
    "buffers" : [
        {
            "byteLength" : 2581504,
            "uri" : "data:application/octet-stream;base64,"
        }
    ]
}
