{
    "asset" : {
        "generator" : "Khronos glTF Blender I/O v1.6.16",
        "version" : "2.0"
    },
    "scene" : 0,
    "scenes" : [
        {
            "name" : "Scene",
            "nodes" : [
                0,
                1,
                2,
                3,
                4,
                5,
                6
            ]
        }
    ],
    "nodes" : [
        {
            "name" : "Camera",
            "rotation" : [
                0.483536034822464,
                0.33687159419059753,
                -0.20870360732078552,
                0.7804827094078064
            ],
            "translation" : [
                6.85556173324585,
                4.958309173583984,
                6.925790786743164
            ]
        },
        {
            "mesh" : 0,
            "name" : "OutBoddy_Cube.002",
            "rotation" : [
                0.5077228546142578,
                -0.49215608835220337,
                0.49215614795684814,
                0.507722795009613
            ],
            "translation" : [
                -4.444860935211182,
                0,
                3.054506540298462
            ]
        },
        {
            "mesh" : 1,
            "name" : "Locker.001_Cube.004",
            "rotation" : [
                0.7058269381523132,
                0.042525626718997955,
                -0.042525630444288254,
                0.7058268189430237
            ],
            "scale" : [
                1.0451322793960571,
                1.00067138671875,
                1
            ],
            "translation" : [
                -0.4031069278717041,
                -0.578927218914032,
                -1.1522904634475708
            ]
        },
        {
            "mesh" : 2,
            "name" : "Mesh.001_Icosphere.001",
            "rotation" : [
                0.7058269381523132,
                0.042525626718997955,
                -0.042525630444288254,
                0.7058268189430237
            ],
            "scale" : [
                2.1727912425994873,
                2.1727912425994873,
                2.172791004180908
            ],
            "translation" : [
                -3.1194210052490234,
                -8.533705711364746,
                -1.0927311182022095
            ]
        },
        {
            "mesh" : 3,
            "name" : "Locker_Cube.003",
            "rotation" : [
                0.7058269381523132,
                0.042525626718997955,
                -0.042525630444288254,
                0.7058268189430237
            ],
            "translation" : [
                -0.5038956999778748,
                0,
                -1.3274526596069336
            ]
        },
        {
            "mesh" : 4,
            "name" : "Mesh_Icosphere",
            "rotation" : [
                0.7058269381523132,
                0.042525626718997955,
                -0.042525630444288254,
                0.7058268189430237
            ],
            "translation" : [
                -0.5038956999778748,
                0,
                -1.515820026397705
            ]
        },
        {
            "mesh" : 5,
            "name" : "10057_wooden_door_v3_iterations-2",
            "rotation" : [
                0.9981899261474609,
                0,
                -0.06014031916856766,
                -1.6262578128589666e-07
            ],
            "scale" : [
                0.07818382233381271,
                -0.05977262184023857,
                -0.12938348948955536
            ],
            "translation" : [
                -0.8921945095062256,
                0.30148977041244507,
                -1.2804926633834839
            ]
        }
    ],
    "materials" : [
        {
            "doubleSided" : true,
            "name" : "text",
            "pbrMetallicRoughness" : {
                "baseColorFactor" : [
                    0.17886121571063995,
                    0.0832524523139,
                    0.02334698848426342,
                    1
                ],
                "metallicFactor" : 0,
                "roughnessFactor" : 0.5
            }
        },
        {
            "doubleSided" : true,
            "name" : "text.002",
            "pbrMetallicRoughness" : {
                "baseColorFactor" : [
                    0.47698864340782166,
                    0.34535321593284607,
                    0.15764571726322174,
                    1
                ],
                "metallicFactor" : 0,
                "roughnessFactor" : 0.5
            }
        },
        {
            "doubleSided" : true,
            "name" : "text.004",
            "pbrMetallicRoughness" : {
                "baseColorFactor" : [
                    0.800000011920929,
                    0.800000011920929,
                    0.800000011920929,
                    1
                ],
                "metallicFactor" : 0,
                "roughnessFactor" : 0.5
            }
        },
        {
            "doubleSided" : true,
            "name" : "text.003",
            "pbrMetallicRoughness" : {
                "baseColorFactor" : [
                    0.40197786688804626,
                    0.3277781903743744,
                    0.19806936383247375,
                    1
                ],
                "metallicFactor" : 0,
                "roughnessFactor" : 0.5
            }
        },
        {
            "doubleSided" : true,
            "name" : "orig_orig_orig_orig_orig_orig_orig_10057_wooden_door_v1",
            "pbrMetallicRoughness" : {
                "baseColorFactor" : [
                    0.08353137969970703,
                    0.03249647468328476,
                    0.026546381413936615,
                    1
                ],
                "metallicFactor" : 0,
                "roughnessFactor" : 0.5
            }
        }
    ],
    "meshes" : [
        {
            "name" : "OutBoddy_Cube.002",
            "primitives" : [
                {
                    "attributes" : {
                        "POSITION" : 0,
                        "NORMAL" : 1,
                        "TEXCOORD_0" : 2
                    },
                    "indices" : 3,
                    "material" : 0
                }
            ]
        },
        {
            "name" : "Locker.001_Cube.004",
            "primitives" : [
                {
                    "attributes" : {
                        "POSITION" : 4,
                        "NORMAL" : 5,
                        "TEXCOORD_0" : 6
                    },
                    "indices" : 7,
                    "material" : 1
                },
                {
                    "attributes" : {
                        "POSITION" : 8,
                        "NORMAL" : 9,
                        "TEXCOORD_0" : 10
                    },
                    "indices" : 11,
                    "material" : 2
                }
            ]
        },
        {
            "name" : "Mesh.001_Icosphere.001",
            "primitives" : [
                {
                    "attributes" : {
                        "POSITION" : 12,
                        "NORMAL" : 13,
                        "TEXCOORD_0" : 14
                    },
                    "indices" : 15,
                    "material" : 3
                }
            ]
        },
        {
            "name" : "Locker_Cube.003",
            "primitives" : [
                {
                    "attributes" : {
                        "POSITION" : 16,
                        "NORMAL" : 17,
                        "TEXCOORD_0" : 18
                    },
                    "indices" : 7,
                    "material" : 1
                },
                {
                    "attributes" : {
                        "POSITION" : 19,
                        "NORMAL" : 20,
                        "TEXCOORD_0" : 21
                    },
                    "indices" : 11,
                    "material" : 2
                }
            ]
        },
        {
            "name" : "Mesh_Icosphere",
            "primitives" : [
                {
                    "attributes" : {
                        "POSITION" : 22,
                        "NORMAL" : 23,
                        "TEXCOORD_0" : 24
                    },
                    "indices" : 15,
                    "material" : 3
                }
            ]
        },
        {
            "name" : "10057_wooden_door_v3_iterations-2",
            "primitives" : [
                {
                    "attributes" : {
                        "POSITION" : 25,
                        "NORMAL" : 26,
                        "TEXCOORD_0" : 27
                    },
                    "indices" : 28,
                    "material" : 4
                }
            ]
        }
    ],
    "accessors" : [
        {
            "bufferView" : 0,
            "componentType" : 5126,
            "count" : 208,
            "max" : [
                3.1821579933166504,
                0.5194889903068542,
                -0.39409399032592773
            ],
            "min" : [
                -3.9978060722351074,
                -0.5100190043449402,
                -12.813814163208008
            ],
            "type" : "VEC3"
        },
        {
            "bufferView" : 1,
            "componentType" : 5126,
            "count" : 208,
            "type" : "VEC3"
        },
        {
            "bufferView" : 2,
            "componentType" : 5126,
            "count" : 208,
            "type" : "VEC2"
        },
        {
            "bufferView" : 3,
            "componentType" : 5123,
            "count" : 708,
            "type" : "SCALAR"
        },
        {
            "bufferView" : 4,
            "componentType" : 5126,
            "count" : 176,
            "max" : [
                2.5527451038360596,
                0.16778600215911865,
                -5.736145973205566
            ],
            "min" : [
                2.1680569648742676,
                0.11174800246953964,
                -7.507615089416504
            ],
            "type" : "VEC3"
        },
        {
            "bufferView" : 5,
            "componentType" : 5126,
            "count" : 176,
            "type" : "VEC3"
        },
        {
            "bufferView" : 6,
            "componentType" : 5126,
            "count" : 176,
            "type" : "VEC2"
        },
        {
            "bufferView" : 7,
            "componentType" : 5123,
            "count" : 612,
            "type" : "SCALAR"
        },
        {
            "bufferView" : 8,
            "componentType" : 5126,
            "count" : 253,
            "max" : [
                2.4730019569396973,
                0.2294670045375824,
                -6.2597551345825195
            ],
            "min" : [
                2.2357840538024902,
                0.14411599934101105,
                -6.508886814117432
            ],
            "type" : "VEC3"
        },
        {
            "bufferView" : 9,
            "componentType" : 5126,
            "count" : 253,
            "type" : "VEC3"
        },
        {
            "bufferView" : 10,
            "componentType" : 5126,
            "count" : 253,
            "type" : "VEC2"
        },
        {
            "bufferView" : 11,
            "componentType" : 5123,
            "count" : 648,
            "type" : "SCALAR"
        },
        {
            "bufferView" : 12,
            "componentType" : 5126,
            "count" : 176,
            "max" : [
                2.4503390789031982,
                0.44710901379585266,
                -6.757783889770508
            ],
            "min" : [
                1.9021960496902466,
                0.15625600516796112,
                -6.94145393371582
            ],
            "type" : "VEC3"
        },
        {
            "bufferView" : 13,
            "componentType" : 5126,
            "count" : 176,
            "type" : "VEC3"
        },
        {
            "bufferView" : 14,
            "componentType" : 5126,
            "count" : 176,
            "type" : "VEC2"
        },
        {
            "bufferView" : 15,
            "componentType" : 5123,
            "count" : 600,
            "type" : "SCALAR"
        },
        {
            "bufferView" : 16,
            "componentType" : 5126,
            "count" : 176,
            "max" : [
                2.5537729263305664,
                -0.23448599874973297,
                -5.736145973205566
            ],
            "min" : [
                2.1690850257873535,
                -0.2905229926109314,
                -7.507615089416504
            ],
            "type" : "VEC3"
        },
        {
            "bufferView" : 17,
            "componentType" : 5126,
            "count" : 176,
            "type" : "VEC3"
        },
        {
            "bufferView" : 18,
            "componentType" : 5126,
            "count" : 176,
            "type" : "VEC2"
        },
        {
            "bufferView" : 19,
            "componentType" : 5126,
            "count" : 253,
            "max" : [
                2.486046075820923,
                -0.266853004693985,
                -6.2597551345825195
            ],
            "min" : [
                2.2488269805908203,
                -0.35220399498939514,
                -6.508886814117432
            ],
            "type" : "VEC3"
        },
        {
            "bufferView" : 20,
            "componentType" : 5126,
            "count" : 253,
            "type" : "VEC3"
        },
        {
            "bufferView" : 21,
            "componentType" : 5126,
            "count" : 253,
            "type" : "VEC2"
        },
        {
            "bufferView" : 22,
            "componentType" : 5126,
            "count" : 176,
            "max" : [
                2.4598660469055176,
                -0.26828500628471375,
                -6.756134986877441
            ],
            "min" : [
                1.9018269777297974,
                -0.5737419724464417,
                -6.944064140319824
            ],
            "type" : "VEC3"
        },
        {
            "bufferView" : 23,
            "componentType" : 5126,
            "count" : 176,
            "type" : "VEC3"
        },
        {
            "bufferView" : 24,
            "componentType" : 5126,
            "count" : 176,
            "type" : "VEC2"
        },
        {
            "bufferView" : 25,
            "componentType" : 5126,
            "count" : 5462,
            "max" : [
                45.48350143432617,
                206.9449005126953,
                2.746299982070923
            ],
            "min" : [
                -45.47060012817383,
                -0.0027000000700354576,
                -2.7662999629974365
            ],
            "type" : "VEC3"
        },
        {
            "bufferView" : 26,
            "componentType" : 5126,
            "count" : 5462,
            "type" : "VEC3"
        },
        {
            "bufferView" : 27,
            "componentType" : 5126,
            "count" : 5462,
            "type" : "VEC2"
        },
        {
            "bufferView" : 28,
            "componentType" : 5123,
            "count" : 12252,
            "type" : "SCALAR"
        }
    ],
    "bufferViews" : [
        {
            "buffer" : 0,
            "byteLength" : 2496,
            "byteOffset" : 0
        },
        {
            "buffer" : 0,
            "byteLength" : 2496,
            "byteOffset" : 2496
        },
        {
            "buffer" : 0,
            "byteLength" : 1664,
            "byteOffset" : 4992
        },
        {
            "buffer" : 0,
            "byteLength" : 1416,
            "byteOffset" : 6656
        },
        {
            "buffer" : 0,
            "byteLength" : 2112,
            "byteOffset" : 8072
        },
        {
            "buffer" : 0,
            "byteLength" : 2112,
            "byteOffset" : 10184
        },
        {
            "buffer" : 0,
            "byteLength" : 1408,
            "byteOffset" : 12296
        },
        {
            "buffer" : 0,
            "byteLength" : 1224,
            "byteOffset" : 13704
        },
        {
            "buffer" : 0,
            "byteLength" : 3036,
            "byteOffset" : 14928
        },
        {
            "buffer" : 0,
            "byteLength" : 3036,
            "byteOffset" : 17964
        },
        {
            "buffer" : 0,
            "byteLength" : 2024,
            "byteOffset" : 21000
        },
        {
            "buffer" : 0,
            "byteLength" : 1296,
            "byteOffset" : 23024
        },
        {
            "buffer" : 0,
            "byteLength" : 2112,
            "byteOffset" : 24320
        },
        {
            "buffer" : 0,
            "byteLength" : 2112,
            "byteOffset" : 26432
        },
        {
            "buffer" : 0,
            "byteLength" : 1408,
            "byteOffset" : 28544
        },
        {
            "buffer" : 0,
            "byteLength" : 1200,
            "byteOffset" : 29952
        },
        {
            "buffer" : 0,
            "byteLength" : 2112,
            "byteOffset" : 31152
        },
        {
            "buffer" : 0,
            "byteLength" : 2112,
            "byteOffset" : 33264
        },
        {
            "buffer" : 0,
            "byteLength" : 1408,
            "byteOffset" : 35376
        },
        {
            "buffer" : 0,
            "byteLength" : 3036,
            "byteOffset" : 36784
        },
        {
            "buffer" : 0,
            "byteLength" : 3036,
            "byteOffset" : 39820
        },
        {
            "buffer" : 0,
            "byteLength" : 2024,
            "byteOffset" : 42856
        },
        {
            "buffer" : 0,
            "byteLength" : 2112,
            "byteOffset" : 44880
        },
        {
            "buffer" : 0,
            "byteLength" : 2112,
            "byteOffset" : 46992
        },
        {
            "buffer" : 0,
            "byteLength" : 1408,
            "byteOffset" : 49104
        },
        {
            "buffer" : 0,
            "byteLength" : 65544,
            "byteOffset" : 50512
        },
        {
            "buffer" : 0,
            "byteLength" : 65544,
            "byteOffset" : 116056
        },
        {
            "buffer" : 0,
            "byteLength" : 43696,
            "byteOffset" : 181600
        },
        {
            "buffer" : 0,
            "byteLength" : 24504,
            "byteOffset" : 225296
        }
    ],
    "buffers" : [
        {
            "byteLength" : 249800,
            "uri" : "data:application/octet-stream;base64,"
        }
    ]
}
