{
    "asset" : {
        "generator" : "Khronos glTF Blender I/O v1.6.16",
        "version" : "2.0"
    },
    "scene" : 0,
    "scenes" : [
        {
            "name" : "Scene",
            "nodes" : [
                0
            ]
        }
    ],
    "nodes" : [
        {
            "mesh" : 0,
            "name" : "sconce_02",
            "rotation" : [
                0.7071068286895752,
                0,
                0,
                0.7071067094802856
            ],
            "scale" : [
                21.57012939453125,
                21.57012939453125,
                21.57012939453125
            ],
            "translation" : [
                0,
                -0.7349643707275391,
                0
            ]
        }
    ],
    "materials" : [
        {
            "doubleSided" : true,
            "name" : "Material.001",
            "pbrMetallicRoughness" : {
                "baseColorFactor" : [
                    0.3505551517009735,
                    0.2607868015766144,
                    0.1335052251815796,
                    1
                ],
                "metallicFactor" : 0.18571428954601288,
                "roughnessFactor" : 0.5
            }
        },
        {
            "doubleSided" : true,
            "name" : "Material.002",
            "pbrMetallicRoughness" : {
                "baseColorFactor" : [
                    0.8000000715255737,
                    0.680341362953186,
                    0.17807233333587646,
                    1
                ],
                "metallicFactor" : 0,
                "roughnessFactor" : 0.5
            }
        }
    ],
    "meshes" : [
        {
            "name" : "sconce_02",
            "primitives" : [
                {
                    "attributes" : {
                        "POSITION" : 0,
                        "NORMAL" : 1,
                        "TEXCOORD_0" : 2
                    },
                    "indices" : 3,
                    "material" : 0
                },
                {
                    "attributes" : {
                        "POSITION" : 4,
                        "NORMAL" : 5,
                        "TEXCOORD_0" : 6
                    },
                    "indices" : 7,
                    "material" : 1
                }
            ]
        }
    ],
    "accessors" : [
        {
            "bufferView" : 0,
            "componentType" : 5126,
            "count" : 3482,
            "max" : [
                0.01959500089287758,
                0.0698309987783432,
                -0.004137999843806028
            ],
            "min" : [
                -0.01977499946951866,
                -0.0002579999854788184,
                -0.06059800088405609
            ],
            "type" : "VEC3"
        },
        {
            "bufferView" : 1,
            "componentType" : 5126,
            "count" : 3482,
            "type" : "VEC3"
        },
        {
            "bufferView" : 2,
            "componentType" : 5126,
            "count" : 3482,
            "type" : "VEC2"
        },
        {
            "bufferView" : 3,
            "componentType" : 5123,
            "count" : 9618,
            "type" : "SCALAR"
        },
        {
            "bufferView" : 4,
            "componentType" : 5126,
            "count" : 1665,
            "max" : [
                0.03693800047039986,
                0.08781000226736069,
                -0.06030099838972092
            ],
            "min" : [
                -0.037119001150131226,
                0.01375299971550703,
                -0.12913699448108673
            ],
            "type" : "VEC3"
        },
        {
            "bufferView" : 5,
            "componentType" : 5126,
            "count" : 1665,
            "type" : "VEC3"
        },
        {
            "bufferView" : 6,
            "componentType" : 5126,
            "count" : 1665,
            "type" : "VEC2"
        },
        {
            "bufferView" : 7,
            "componentType" : 5123,
            "count" : 9792,
            "type" : "SCALAR"
        }
    ],
    "bufferViews" : [
        {
            "buffer" : 0,
            "byteLength" : 41784,
            "byteOffset" : 0
        },
        {
            "buffer" : 0,
            "byteLength" : 41784,
            "byteOffset" : 41784
        },
        {
            "buffer" : 0,
            "byteLength" : 27856,
            "byteOffset" : 83568
        },
        {
            "buffer" : 0,
            "byteLength" : 19236,
            "byteOffset" : 111424
        },
        {
            "buffer" : 0,
            "byteLength" : 19980,
            "byteOffset" : 130660
        },
        {
            "buffer" : 0,
            "byteLength" : 19980,
            "byteOffset" : 150640
        },
        {
            "buffer" : 0,
            "byteLength" : 13320,
            "byteOffset" : 170620
        },
        {
            "buffer" : 0,
            "byteLength" : 19584,
            "byteOffset" : 183940
        }
    ],
    "buffers" : [
        {
            "byteLength" : 203524,
            "uri" : "data:application/octet-stream;base64,"
        }
    ]
}
