{
    "asset" : {
        "generator" : "Khronos glTF Blender I/O v1.6.16",
        "version" : "2.0"
    },
    "scene" : 0,
    "scenes" : [
        {
            "name" : "Scene",
            "nodes" : [
                0,
                1,
                2,
                3,
                4
            ]
        }
    ],
    "nodes" : [
        {
            "name" : "Light.001",
            "rotation" : [
                0.16907575726509094,
                0.7558803558349609,
                -0.27217137813568115,
                0.570947527885437
            ],
            "translation" : [
                4.076245307922363,
                5.903861999511719,
                -1.0054539442062378
            ]
        },
        {
            "name" : "Camera.001",
            "rotation" : [
                0.483536034822464,
                0.33687159419059753,
                -0.20870360732078552,
                0.7804827094078064
            ],
            "translation" : [
                7.358891487121582,
                4.958309173583984,
                6.925790786743164
            ]
        },
        {
            "mesh" : 0,
            "name" : "11832_Lamp_v1_l2",
            "scale" : [
                0.014719708822667599,
                0.014719708822667599,
                0.014719708822667599
            ],
            "translation" : [
                0,
                -1.387349009513855,
                0
            ]
        },
        {
            "name" : "Light",
            "rotation" : [
                0.16907575726509094,
                0.7558803558349609,
                -0.27217137813568115,
                0.570947527885437
            ],
            "translation" : [
                4.076245307922363,
                5.903861999511719,
                -1.0054539442062378
            ]
        },
        {
            "name" : "Camera",
            "rotation" : [
                0.483536034822464,
                0.33687159419059753,
                -0.20870360732078552,
                0.7804827094078064
            ],
            "translation" : [
                7.358891487121582,
                4.958309173583984,
                6.925790786743164
            ]
        }
    ],
    "materials" : [
        {
            "doubleSided" : true,
            "name" : "Lamp_bulb_glass_2",
            "pbrMetallicRoughness" : {
                "baseColorFactor" : [
                    0.06372029334306717,
                    0.021571727469563484,
                    0.011245510540902615,
                    1
                ],
                "metallicFactor" : 0,
                "roughnessFactor" : 0.5
            }
        },
        {
            "doubleSided" : true,
            "name" : "Lamp_bulb_glass",
            "pbrMetallicRoughness" : {
                "baseColorFactor" : [
                    0.8000000715255737,
                    0.7075135111808777,
                    0.12364369630813599,
                    1
                ],
                "metallicFactor" : 0,
                "roughnessFactor" : 0.5
            }
        },
        {
            "doubleSided" : true,
            "name" : "Lamp_bulb_body",
            "pbrMetallicRoughness" : {
                "baseColorFactor" : [
                    0.8000000715255737,
                    0.06278819590806961,
                    0.06278819590806961,
                    1
                ],
                "metallicFactor" : 0,
                "roughnessFactor" : 0.5
            }
        },
        {
            "doubleSided" : true,
            "name" : "Lamp_shade",
            "pbrMetallicRoughness" : {
                "baseColorFactor" : [
                    0.21403390169143677,
                    0.03284746780991554,
                    0.017734874039888382,
                    1
                ],
                "metallicFactor" : 0,
                "roughnessFactor" : 0.5
            }
        },
        {
            "doubleSided" : true,
            "name" : "Lamp_body",
            "pbrMetallicRoughness" : {
                "baseColorFactor" : [
                    0.6981908082962036,
                    0.4881693124771118,
                    0.1644745022058487,
                    1
                ],
                "metallicFactor" : 0,
                "roughnessFactor" : 0.5
            }
        },
        {
            "doubleSided" : true,
            "name" : "Lamp_bulb_filament",
            "pbrMetallicRoughness" : {
                "baseColorFactor" : [
                    0.8000000715255737,
                    0.09107834845781326,
                    0.1351076066493988,
                    1
                ],
                "metallicFactor" : 0,
                "roughnessFactor" : 0.5
            }
        }
    ],
    "meshes" : [
        {
            "name" : "11832_Lamp_v1_l2",
            "primitives" : [
                {
                    "attributes" : {
                        "POSITION" : 0,
                        "NORMAL" : 1,
                        "TEXCOORD_0" : 2
                    },
                    "indices" : 3,
                    "material" : 0
                },
                {
                    "attributes" : {
                        "POSITION" : 4,
                        "NORMAL" : 5,
                        "TEXCOORD_0" : 6
                    },
                    "indices" : 7,
                    "material" : 1
                },
                {
                    "attributes" : {
                        "POSITION" : 8,
                        "NORMAL" : 9,
                        "TEXCOORD_0" : 10
                    },
                    "indices" : 11,
                    "material" : 2
                },
                {
                    "attributes" : {
                        "POSITION" : 12,
                        "NORMAL" : 13,
                        "TEXCOORD_0" : 14
                    },
                    "indices" : 15,
                    "material" : 3
                },
                {
                    "attributes" : {
                        "POSITION" : 16,
                        "NORMAL" : 17,
                        "TEXCOORD_0" : 18
                    },
                    "indices" : 19,
                    "material" : 4
                },
                {
                    "attributes" : {
                        "POSITION" : 20,
                        "NORMAL" : 21,
                        "TEXCOORD_0" : 22
                    },
                    "indices" : 23,
                    "material" : 5
                }
            ]
        }
    ],
    "accessors" : [
        {
            "bufferView" : 0,
            "componentType" : 5126,
            "count" : 890,
            "max" : [
                22.59239959716797,
                174.98849487304688,
                -4.707799911499023
            ],
            "min" : [
                21.38089942932129,
                169.84719848632812,
                -5.34499979019165
            ],
            "type" : "VEC3"
        },
        {
            "bufferView" : 1,
            "componentType" : 5126,
            "count" : 890,
            "type" : "VEC3"
        },
        {
            "bufferView" : 2,
            "componentType" : 5126,
            "count" : 890,
            "type" : "VEC2"
        },
        {
            "bufferView" : 3,
            "componentType" : 5123,
            "count" : 5328,
            "type" : "SCALAR"
        },
        {
            "bufferView" : 4,
            "componentType" : 5126,
            "count" : 5404,
            "max" : [
                25.255599975585938,
                179.28160095214844,
                -1.7589000463485718
            ],
            "min" : [
                18.722400665283203,
                170.7209014892578,
                -8.291999816894531
            ],
            "type" : "VEC3"
        },
        {
            "bufferView" : 5,
            "componentType" : 5126,
            "count" : 5404,
            "type" : "VEC3"
        },
        {
            "bufferView" : 6,
            "componentType" : 5126,
            "count" : 5404,
            "type" : "VEC2"
        },
        {
            "bufferView" : 7,
            "componentType" : 5123,
            "count" : 32400,
            "type" : "SCALAR"
        },
        {
            "bufferView" : 8,
            "componentType" : 5126,
            "count" : 2702,
            "max" : [
                23.33139991760254,
                170.7863006591797,
                -3.683000087738037
            ],
            "min" : [
                20.646499633789062,
                168.34930419921875,
                -6.3678998947143555
            ],
            "type" : "VEC3"
        },
        {
            "bufferView" : 9,
            "componentType" : 5126,
            "count" : 2702,
            "type" : "VEC3"
        },
        {
            "bufferView" : 10,
            "componentType" : 5126,
            "count" : 2702,
            "type" : "VEC2"
        },
        {
            "bufferView" : 11,
            "componentType" : 5123,
            "count" : 16200,
            "type" : "SCALAR"
        },
        {
            "bufferView" : 12,
            "componentType" : 5126,
            "count" : 7200,
            "max" : [
                42.52939987182617,
                183.1999053955078,
                12.80739974975586
            ],
            "min" : [
                1.4485000371932983,
                169.14109802246094,
                -22.858200073242188
            ],
            "type" : "VEC3"
        },
        {
            "bufferView" : 13,
            "componentType" : 5126,
            "count" : 7200,
            "type" : "VEC3"
        },
        {
            "bufferView" : 14,
            "componentType" : 5126,
            "count" : 7200,
            "type" : "VEC2"
        },
        {
            "bufferView" : 15,
            "componentType" : 5123,
            "count" : 43200,
            "type" : "SCALAR"
        },
        {
            "bufferView" : 16,
            "componentType" : 5126,
            "count" : 44150,
            "max" : [
                38.1239013671875,
                170.77459716796875,
                8.96090030670166
            ],
            "min" : [
                5.854000091552734,
                0.2337999939918518,
                -19.011699676513672
            ],
            "type" : "VEC3"
        },
        {
            "bufferView" : 17,
            "componentType" : 5126,
            "count" : 44150,
            "type" : "VEC3"
        },
        {
            "bufferView" : 18,
            "componentType" : 5126,
            "count" : 44150,
            "type" : "VEC2"
        },
        {
            "bufferView" : 19,
            "componentType" : 5123,
            "count" : 233352,
            "type" : "SCALAR"
        },
        {
            "bufferView" : 20,
            "componentType" : 5126,
            "count" : 2160,
            "max" : [
                23.45009994506836,
                176.47109985351562,
                -4.575200080871582
            ],
            "min" : [
                20.525400161743164,
                169.94000244140625,
                -5.716599941253662
            ],
            "type" : "VEC3"
        },
        {
            "bufferView" : 21,
            "componentType" : 5126,
            "count" : 2160,
            "type" : "VEC3"
        },
        {
            "bufferView" : 22,
            "componentType" : 5126,
            "count" : 2160,
            "type" : "VEC2"
        },
        {
            "bufferView" : 23,
            "componentType" : 5123,
            "count" : 12912,
            "type" : "SCALAR"
        }
    ],
    "bufferViews" : [
        {
            "buffer" : 0,
            "byteLength" : 10680,
            "byteOffset" : 0
        },
        {
            "buffer" : 0,
            "byteLength" : 10680,
            "byteOffset" : 10680
        },
        {
            "buffer" : 0,
            "byteLength" : 7120,
            "byteOffset" : 21360
        },
        {
            "buffer" : 0,
            "byteLength" : 10656,
            "byteOffset" : 28480
        },
        {
            "buffer" : 0,
            "byteLength" : 64848,
            "byteOffset" : 39136
        },
        {
            "buffer" : 0,
            "byteLength" : 64848,
            "byteOffset" : 103984
        },
        {
            "buffer" : 0,
            "byteLength" : 43232,
            "byteOffset" : 168832
        },
        {
            "buffer" : 0,
            "byteLength" : 64800,
            "byteOffset" : 212064
        },
        {
            "buffer" : 0,
            "byteLength" : 32424,
            "byteOffset" : 276864
        },
        {
            "buffer" : 0,
            "byteLength" : 32424,
            "byteOffset" : 309288
        },
        {
            "buffer" : 0,
            "byteLength" : 21616,
            "byteOffset" : 341712
        },
        {
            "buffer" : 0,
            "byteLength" : 32400,
            "byteOffset" : 363328
        },
        {
            "buffer" : 0,
            "byteLength" : 86400,
            "byteOffset" : 395728
        },
        {
            "buffer" : 0,
            "byteLength" : 86400,
            "byteOffset" : 482128
        },
        {
            "buffer" : 0,
            "byteLength" : 57600,
            "byteOffset" : 568528
        },
        {
            "buffer" : 0,
            "byteLength" : 86400,
            "byteOffset" : 626128
        },
        {
            "buffer" : 0,
            "byteLength" : 529800,
            "byteOffset" : 712528
        },
        {
            "buffer" : 0,
            "byteLength" : 529800,
            "byteOffset" : 1242328
        },
        {
            "buffer" : 0,
            "byteLength" : 353200,
            "byteOffset" : 1772128
        },
        {
            "buffer" : 0,
            "byteLength" : 466704,
            "byteOffset" : 2125328
        },
        {
            "buffer" : 0,
            "byteLength" : 25920,
            "byteOffset" : 2592032
        },
        {
            "buffer" : 0,
            "byteLength" : 25920,
            "byteOffset" : 2617952
        },
        {
            "buffer" : 0,
            "byteLength" : 17280,
            "byteOffset" : 2643872
        },
        {
            "buffer" : 0,
            "byteLength" : 25824,
            "byteOffset" : 2661152
        }
    ],
    "buffers" : [
        {
            "byteLength" : 2686976,
            "uri" : "data:application/octet-stream;base64,"
        }
    ]
}
