{
    "asset" : {
        "generator" : "Khronos glTF Blender I/O v1.6.16",
        "version" : "2.0"
    },
    "scene" : 0,
    "scenes" : [
        {
            "name" : "Scene",
            "nodes" : [
                0,
                1,
                2,
                3
            ]
        }
    ],
    "nodes" : [
        {
            "name" : "Camera.001",
            "rotation" : [
                0.483536034822464,
                0.33687159419059753,
                -0.20870360732078552,
                0.7804827094078064
            ],
            "translation" : [
                7.358891487121582,
                4.958309173583984,
                6.925790786743164
            ]
        },
        {
            "mesh" : 0,
            "name" : "16669_Straight_Stairs_with_Right-side_Banister-Honey_V1",
            "rotation" : [
                0.9997443556785583,
                0,
                0,
                -0.022610807791352272
            ],
            "scale" : [
                -0.01001072023063898,
                -0.01001072023063898,
                -0.01001072023063898
            ]
        },
        {
            "name" : "Light",
            "rotation" : [
                0.16907575726509094,
                0.7558803558349609,
                -0.27217137813568115,
                0.570947527885437
            ],
            "translation" : [
                4.076245307922363,
                5.903861999511719,
                -1.0054539442062378
            ]
        },
        {
            "name" : "Camera",
            "rotation" : [
                0.483536034822464,
                0.33687159419059753,
                -0.20870360732078552,
                0.7804827094078064
            ],
            "translation" : [
                7.358891487121582,
                4.958309173583984,
                6.925790786743164
            ]
        }
    ],
    "materials" : [
        {
            "doubleSided" : true,
            "name" : "Honey_mat",
            "pbrMetallicRoughness" : {
                "baseColorFactor" : [
                    0.6000000238418579,
                    0.42750000953674316,
                    0.2745000123977661,
                    1
                ],
                "metallicFactor" : 0,
                "roughnessFactor" : 0.8333333134651184
            }
        }
    ],
    "meshes" : [
        {
            "name" : "16669_Straight_Stairs_with_Right-side_Banister-Honey_V1",
            "primitives" : [
                {
                    "attributes" : {
                        "POSITION" : 0,
                        "NORMAL" : 1,
                        "TEXCOORD_0" : 2
                    },
                    "indices" : 3,
                    "material" : 0
                }
            ]
        }
    ],
    "accessors" : [
        {
            "bufferView" : 0,
            "componentType" : 5126,
            "count" : 45797,
            "max" : [
                19.18779945373535,
                293.5852966308594,
                136.3083038330078
            ],
            "min" : [
                -62.772098541259766,
                -106.06880187988281,
                -198.3470001220703
            ],
            "type" : "VEC3"
        },
        {
            "bufferView" : 1,
            "componentType" : 5126,
            "count" : 45797,
            "type" : "VEC3"
        },
        {
            "bufferView" : 2,
            "componentType" : 5126,
            "count" : 45797,
            "type" : "VEC2"
        },
        {
            "bufferView" : 3,
            "componentType" : 5123,
            "count" : 219960,
            "type" : "SCALAR"
        }
    ],
    "bufferViews" : [
        {
            "buffer" : 0,
            "byteLength" : 549564,
            "byteOffset" : 0
        },
        {
            "buffer" : 0,
            "byteLength" : 549564,
            "byteOffset" : 549564
        },
        {
            "buffer" : 0,
            "byteLength" : 366376,
            "byteOffset" : 1099128
        },
        {
            "buffer" : 0,
            "byteLength" : 439920,
            "byteOffset" : 1465504
        }
    ],
    "buffers" : [
        {
            "byteLength" : 1905424,
            "uri" : "data:application/octet-stream;base64,"
        }
    ]
}
