{
    "asset" : {
        "generator" : "Khronos glTF Blender I/O v1.6.16",
        "version" : "2.0"
    },
    "scene" : 0,
    "scenes" : [
        {
            "name" : "Scene",
            "nodes" : [
                0,
                1,
                2
            ]
        }
    ],
    "nodes" : [
        {
            "mesh" : 0,
            "name" : "16697_Straight Leg_Round_Table_Oak_V1",
            "scale" : [
                0.013354928232729435,
                0.013354928232729435,
                0.013354928232729435
            ]
        },
        {
            "name" : "Light",
            "rotation" : [
                0.16907575726509094,
                0.7558803558349609,
                -0.27217137813568115,
                0.570947527885437
            ],
            "translation" : [
                4.076245307922363,
                5.903861999511719,
                -1.0054539442062378
            ]
        },
        {
            "name" : "Camera",
            "rotation" : [
                0.483536034822464,
                0.33687159419059753,
                -0.20870360732078552,
                0.7804827094078064
            ],
            "translation" : [
                7.358891487121582,
                4.958309173583984,
                6.925790786743164
            ]
        }
    ],
    "materials" : [
        {
            "doubleSided" : true,
            "name" : "Material.002",
            "pbrMetallicRoughness" : {
                "baseColorFactor" : [
                    0.1901775747537613,
                    0.0616399310529232,
                    0.031828444451093674,
                    1
                ],
                "metallicFactor" : 0,
                "roughnessFactor" : 0.5
            }
        }
    ],
    "meshes" : [
        {
            "name" : "16697_Straight Leg_Round_Table_Oak_V1",
            "primitives" : [
                {
                    "attributes" : {
                        "POSITION" : 0,
                        "NORMAL" : 1,
                        "TEXCOORD_0" : 2
                    },
                    "indices" : 3,
                    "material" : 0
                }
            ]
        }
    ],
    "accessors" : [
        {
            "bufferView" : 0,
            "componentType" : 5126,
            "count" : 10631,
            "max" : [
                57.39179992675781,
                32.016300201416016,
                82.73269653320312
            ],
            "min" : [
                -57.293800354003906,
                -44.73640060424805,
                -82.81169891357422
            ],
            "type" : "VEC3"
        },
        {
            "bufferView" : 1,
            "componentType" : 5126,
            "count" : 10631,
            "type" : "VEC3"
        },
        {
            "bufferView" : 2,
            "componentType" : 5126,
            "count" : 10631,
            "type" : "VEC2"
        },
        {
            "bufferView" : 3,
            "componentType" : 5123,
            "count" : 38640,
            "type" : "SCALAR"
        }
    ],
    "bufferViews" : [
        {
            "buffer" : 0,
            "byteLength" : 127572,
            "byteOffset" : 0
        },
        {
            "buffer" : 0,
            "byteLength" : 127572,
            "byteOffset" : 127572
        },
        {
            "buffer" : 0,
            "byteLength" : 85048,
            "byteOffset" : 255144
        },
        {
            "buffer" : 0,
            "byteLength" : 77280,
            "byteOffset" : 340192
        }
    ],
    "buffers" : [
        {
            "byteLength" : 417472,
            "uri" : "data:application/octet-stream;base64,"
        }
    ]
}
