{
    "asset" : {
        "generator" : "Khronos glTF Blender I/O v1.6.16",
        "version" : "2.0"
    },
    "scene" : 0,
    "scenes" : [
        {
            "name" : "Scene",
            "nodes" : [
                0
            ]
        }
    ],
    "nodes" : [
        {
            "mesh" : 0,
            "name" : "10057_wooden_door_v3_iterations-2",
            "rotation" : [
                0,
                0.9995936751365662,
                0,
                -0.0285035353153944
            ],
            "scale" : [
                0.047753576189279556,
                0.047753576189279556,
                0.17219538986682892
            ]
        }
    ],
    "materials" : [
        {
            "doubleSided" : true,
            "name" : "Material.002",
            "pbrMetallicRoughness" : {
                "baseColorFactor" : [
                    0.6151765584945679,
                    0.29439249634742737,
                    0.13133883476257324,
                    1
                ],
                "metallicFactor" : 0,
                "roughnessFactor" : 0.5
            }
        }
    ],
    "meshes" : [
        {
            "name" : "10057_wooden_door_v3_iterations-2",
            "primitives" : [
                {
                    "attributes" : {
                        "POSITION" : 0,
                        "NORMAL" : 1,
                        "TEXCOORD_0" : 2
                    },
                    "indices" : 3,
                    "material" : 0
                }
            ]
        }
    ],
    "accessors" : [
        {
            "bufferView" : 0,
            "componentType" : 5126,
            "count" : 5462,
            "max" : [
                45.48350143432617,
                206.9449005126953,
                2.746299982070923
            ],
            "min" : [
                -45.47060012817383,
                -0.0027000000700354576,
                -2.7662999629974365
            ],
            "type" : "VEC3"
        },
        {
            "bufferView" : 1,
            "componentType" : 5126,
            "count" : 5462,
            "type" : "VEC3"
        },
        {
            "bufferView" : 2,
            "componentType" : 5126,
            "count" : 5462,
            "type" : "VEC2"
        },
        {
            "bufferView" : 3,
            "componentType" : 5123,
            "count" : 12252,
            "type" : "SCALAR"
        }
    ],
    "bufferViews" : [
        {
            "buffer" : 0,
            "byteLength" : 65544,
            "byteOffset" : 0
        },
        {
            "buffer" : 0,
            "byteLength" : 65544,
            "byteOffset" : 65544
        },
        {
            "buffer" : 0,
            "byteLength" : 43696,
            "byteOffset" : 131088
        },
        {
            "buffer" : 0,
            "byteLength" : 24504,
            "byteOffset" : 174784
        }
    ],
    "buffers" : [
        {
            "byteLength" : 199288,
            "uri" : "data:application/octet-stream;base64,"
        }
    ]
}
