{
    "asset" : {
        "generator" : "Khronos glTF Blender I/O v1.6.16",
        "version" : "2.0"
    },
    "scene" : 0,
    "scenes" : [
        {
            "name" : "Scene",
            "nodes" : [
                0,
                1,
                2,
                3
            ]
        }
    ],
    "nodes" : [
        {
            "mesh" : 0,
            "name" : "10057_wooden_door_v3_iterations-2",
            "rotation" : [
                0,
                0.9995936751365662,
                0,
                -0.0285035353153944
            ],
            "scale" : [
                0.05640280246734619,
                0.049048203974962234,
                0.08305692672729492
            ]
        },
        {
            "name" : "Camera.001",
            "rotation" : [
                0.483536034822464,
                0.33687159419059753,
                -0.20870360732078552,
                0.7804827094078064
            ],
            "translation" : [
                7.358891487121582,
                4.958309173583984,
                6.925790786743164
            ]
        },
        {
            "name" : "Light",
            "rotation" : [
                0.16907575726509094,
                0.7558803558349609,
                -0.27217137813568115,
                0.570947527885437
            ],
            "translation" : [
                4.076245307922363,
                5.903861999511719,
                -1.0054539442062378
            ]
        },
        {
            "name" : "Camera",
            "rotation" : [
                0.483536034822464,
                0.33687159419059753,
                -0.20870360732078552,
                0.7804827094078064
            ],
            "translation" : [
                7.358891487121582,
                4.958309173583984,
                6.925790786743164
            ]
        }
    ],
    "materials" : [
        {
            "doubleSided" : true,
            "name" : "Material.001",
            "pbrMetallicRoughness" : {
                "baseColorFactor" : [
                    0.17068639397621155,
                    0.24572695791721344,
                    0.30319756269454956,
                    1
                ],
                "metallicFactor" : 0,
                "roughnessFactor" : 0.5
            }
        }
    ],
    "meshes" : [
        {
            "name" : "10057_wooden_door_v3_iterations-2",
            "primitives" : [
                {
                    "attributes" : {
                        "POSITION" : 0,
                        "NORMAL" : 1,
                        "TEXCOORD_0" : 2
                    },
                    "indices" : 3,
                    "material" : 0
                }
            ]
        }
    ],
    "accessors" : [
        {
            "bufferView" : 0,
            "componentType" : 5126,
            "count" : 7033,
            "max" : [
                45.48350143432617,
                206.9449005126953,
                2.746299982070923
            ],
            "min" : [
                -45.47060012817383,
                -0.0027000000700354576,
                -2.7662999629974365
            ],
            "type" : "VEC3"
        },
        {
            "bufferView" : 1,
            "componentType" : 5126,
            "count" : 7033,
            "type" : "VEC3"
        },
        {
            "bufferView" : 2,
            "componentType" : 5126,
            "count" : 7033,
            "type" : "VEC2"
        },
        {
            "bufferView" : 3,
            "componentType" : 5123,
            "count" : 12252,
            "type" : "SCALAR"
        }
    ],
    "bufferViews" : [
        {
            "buffer" : 0,
            "byteLength" : 84396,
            "byteOffset" : 0
        },
        {
            "buffer" : 0,
            "byteLength" : 84396,
            "byteOffset" : 84396
        },
        {
            "buffer" : 0,
            "byteLength" : 56264,
            "byteOffset" : 168792
        },
        {
            "buffer" : 0,
            "byteLength" : 24504,
            "byteOffset" : 225056
        }
    ],
    "buffers" : [
        {
            "byteLength" : 249560,
            "uri" : "data:application/octet-stream;base64,"
        }
    ]
}
