{
    "asset" : {
        "generator" : "Khronos glTF Blender I/O v1.6.16",
        "version" : "2.0"
    },
    "scene" : 0,
    "scenes" : [
        {
            "name" : "Scene",
            "nodes" : [
                0,
                1,
                2,
                3,
                4,
                5
            ]
        }
    ],
    "nodes" : [
        {
            "mesh" : 0,
            "name" : "N00b6",
            "rotation" : [
                0.7071068286895752,
                0,
                0,
                0.7071067094802856
            ],
            "scale" : [
                0.48488056659698486,
                0.5394432544708252,
                0.48488056659698486
            ],
            "translation" : [
                3.20662784576416,
                0,
                -1.5286649465560913
            ]
        },
        {
            "mesh" : 1,
            "name" : "N00b4",
            "rotation" : [
                0.7071068286895752,
                0,
                0,
                0.7071067094802856
            ],
            "scale" : [
                0.48488056659698486,
                0.5394432544708252,
                0.48488056659698486
            ],
            "translation" : [
                3.20662784576416,
                0,
                -1.5286649465560913
            ]
        },
        {
            "mesh" : 2,
            "name" : "N00b1.001",
            "rotation" : [
                0.7071068286895752,
                0,
                0,
                0.7071067094802856
            ],
            "scale" : [
                0.48488056659698486,
                0.5394432544708252,
                0.48488056659698486
            ],
            "translation" : [
                3.2225589752197266,
                0,
                -1.5286649465560913
            ]
        },
        {
            "mesh" : 3,
            "name" : "N00b7.001",
            "rotation" : [
                0.7071068286895752,
                0,
                0,
                0.7071067094802856
            ],
            "scale" : [
                0.48488056659698486,
                0.5394432544708252,
                0.48488056659698486
            ],
            "translation" : [
                3.23850154876709,
                0,
                -1.5286649465560913
            ]
        },
        {
            "mesh" : 4,
            "name" : "N00b3.001",
            "rotation" : [
                0.7071068286895752,
                0,
                0,
                0.7071067094802856
            ],
            "scale" : [
                0.48488056659698486,
                0.5394432544708252,
                0.48488056659698486
            ],
            "translation" : [
                3.236804485321045,
                0,
                -1.5286649465560913
            ]
        },
        {
            "mesh" : 5,
            "name" : "N00b3.002",
            "rotation" : [
                0.7071068286895752,
                0,
                0,
                0.7071067094802856
            ],
            "scale" : [
                0.48488056659698486,
                0.5394432544708252,
                0.48488056659698486
            ],
            "translation" : [
                3.2210593223571777,
                0,
                -0.9530368447303772
            ]
        }
    ],
    "materials" : [
        {
            "doubleSided" : true,
            "name" : "Material.009",
            "pbrMetallicRoughness" : {
                "baseColorFactor" : [
                    0.024157634004950523,
                    0.019382359459996223,
                    0.014443845488131046,
                    1
                ],
                "metallicFactor" : 0,
                "roughnessFactor" : 0.5
            }
        },
        {
            "doubleSided" : true,
            "name" : "Material.008",
            "pbrMetallicRoughness" : {
                "baseColorFactor" : [
                    0.0036420845426619053,
                    0.002048258436843753,
                    0.0012499927543103695,
                    1
                ],
                "metallicFactor" : 0,
                "roughnessFactor" : 0.5
            }
        },
        {
            "doubleSided" : true,
            "name" : "Material.010",
            "pbrMetallicRoughness" : {
                "baseColorFactor" : [
                    0.011612245813012123,
                    0.012983039021492004,
                    0.010960093699395657,
                    1
                ],
                "metallicFactor" : 0,
                "roughnessFactor" : 0.5
            }
        },
        {
            "doubleSided" : true,
            "name" : "N00b1Mtl.002",
            "pbrMetallicRoughness" : {
                "baseColorFactor" : [
                    0.01850022003054619,
                    0.01599629782140255,
                    0.013702086172997952,
                    1
                ],
                "metallicFactor" : 0,
                "roughnessFactor" : 0.4000000059604645
            }
        },
        {
            "doubleSided" : true,
            "name" : "Material.012",
            "pbrMetallicRoughness" : {
                "baseColorFactor" : [
                    0.011612245813012123,
                    0.012286492623388767,
                    0.01032982487231493,
                    1
                ],
                "metallicFactor" : 0,
                "roughnessFactor" : 0.5
            }
        },
        {
            "doubleSided" : true,
            "name" : "Material.011",
            "pbrMetallicRoughness" : {
                "baseColorFactor" : [
                    0.011612245813012123,
                    0.012286492623388767,
                    0.01032982487231493,
                    1
                ],
                "metallicFactor" : 0,
                "roughnessFactor" : 0.5
            }
        }
    ],
    "meshes" : [
        {
            "name" : "N00b6",
            "primitives" : [
                {
                    "attributes" : {
                        "POSITION" : 0,
                        "NORMAL" : 1,
                        "TEXCOORD_0" : 2
                    },
                    "indices" : 3,
                    "material" : 0
                }
            ]
        },
        {
            "name" : "N00b4",
            "primitives" : [
                {
                    "attributes" : {
                        "POSITION" : 4,
                        "NORMAL" : 5,
                        "TEXCOORD_0" : 6
                    },
                    "indices" : 7,
                    "material" : 1
                }
            ]
        },
        {
            "name" : "N00b1.001",
            "primitives" : [
                {
                    "attributes" : {
                        "POSITION" : 8,
                        "NORMAL" : 9,
                        "TEXCOORD_0" : 10
                    },
                    "indices" : 11,
                    "material" : 2
                }
            ]
        },
        {
            "name" : "N00b7.001",
            "primitives" : [
                {
                    "attributes" : {
                        "POSITION" : 12,
                        "NORMAL" : 13,
                        "TEXCOORD_0" : 14
                    },
                    "indices" : 15,
                    "material" : 3
                }
            ]
        },
        {
            "name" : "N00b3.001",
            "primitives" : [
                {
                    "attributes" : {
                        "POSITION" : 16,
                        "NORMAL" : 17,
                        "TEXCOORD_0" : 18
                    },
                    "indices" : 19,
                    "material" : 4
                }
            ]
        },
        {
            "name" : "N00b3.002",
            "primitives" : [
                {
                    "attributes" : {
                        "POSITION" : 20,
                        "NORMAL" : 21,
                        "TEXCOORD_0" : 22
                    },
                    "indices" : 19,
                    "material" : 5
                }
            ]
        }
    ],
    "accessors" : [
        {
            "bufferView" : 0,
            "componentType" : 5126,
            "count" : 70,
            "max" : [
                -6.139172077178955,
                4.799396991729736,
                0.10947400331497192
            ],
            "min" : [
                -7.139172077178955,
                3.79939603805542,
                -1.8905270099639893
            ],
            "type" : "VEC3"
        },
        {
            "bufferView" : 1,
            "componentType" : 5126,
            "count" : 70,
            "type" : "VEC3"
        },
        {
            "bufferView" : 2,
            "componentType" : 5126,
            "count" : 70,
            "type" : "VEC2"
        },
        {
            "bufferView" : 3,
            "componentType" : 5123,
            "count" : 132,
            "type" : "SCALAR"
        },
        {
            "bufferView" : 4,
            "componentType" : 5126,
            "count" : 58,
            "max" : [
                -6.139172077178955,
                1.7993969917297363,
                0.10947299748659134
            ],
            "min" : [
                -7.139172077178955,
                0.7993959784507751,
                -1.8905270099639893
            ],
            "type" : "VEC3"
        },
        {
            "bufferView" : 5,
            "componentType" : 5126,
            "count" : 58,
            "type" : "VEC3"
        },
        {
            "bufferView" : 6,
            "componentType" : 5126,
            "count" : 58,
            "type" : "VEC2"
        },
        {
            "bufferView" : 7,
            "componentType" : 5123,
            "count" : 132,
            "type" : "SCALAR"
        },
        {
            "bufferView" : 8,
            "componentType" : 5126,
            "count" : 58,
            "max" : [
                -6.139172077178955,
                3.7993969917297363,
                0.10947400331497192
            ],
            "min" : [
                -7.139172077178955,
                1.79939603805542,
                -1.8905270099639893
            ],
            "type" : "VEC3"
        },
        {
            "bufferView" : 9,
            "componentType" : 5126,
            "count" : 58,
            "type" : "VEC3"
        },
        {
            "bufferView" : 10,
            "componentType" : 5126,
            "count" : 58,
            "type" : "VEC2"
        },
        {
            "bufferView" : 11,
            "componentType" : 5123,
            "count" : 132,
            "type" : "SCALAR"
        },
        {
            "bufferView" : 12,
            "componentType" : 5126,
            "count" : 877,
            "max" : [
                -6.040252208709717,
                3.398297071456909,
                -1.7893060445785522
            ],
            "min" : [
                -7.238091945648193,
                2.2004969120025635,
                -2.991736888885498
            ],
            "type" : "VEC3"
        },
        {
            "bufferView" : 13,
            "componentType" : 5126,
            "count" : 877,
            "type" : "VEC3"
        },
        {
            "bufferView" : 14,
            "componentType" : 5126,
            "count" : 877,
            "type" : "VEC2"
        },
        {
            "bufferView" : 15,
            "componentType" : 5123,
            "count" : 2538,
            "type" : "SCALAR"
        },
        {
            "bufferView" : 16,
            "componentType" : 5126,
            "count" : 65,
            "max" : [
                -6.139172077178955,
                2.79939603805542,
                2.109477996826172
            ],
            "min" : [
                -7.139172077178955,
                1.79939603805542,
                0.10947299748659134
            ],
            "type" : "VEC3"
        },
        {
            "bufferView" : 17,
            "componentType" : 5126,
            "count" : 65,
            "type" : "VEC3"
        },
        {
            "bufferView" : 18,
            "componentType" : 5126,
            "count" : 65,
            "type" : "VEC2"
        },
        {
            "bufferView" : 19,
            "componentType" : 5123,
            "count" : 132,
            "type" : "SCALAR"
        },
        {
            "bufferView" : 20,
            "componentType" : 5126,
            "count" : 65,
            "max" : [
                -6.139172077178955,
                2.79939603805542,
                2.109477996826172
            ],
            "min" : [
                -7.139172077178955,
                1.79939603805542,
                0.10947299748659134
            ],
            "type" : "VEC3"
        },
        {
            "bufferView" : 21,
            "componentType" : 5126,
            "count" : 65,
            "type" : "VEC3"
        },
        {
            "bufferView" : 22,
            "componentType" : 5126,
            "count" : 65,
            "type" : "VEC2"
        }
    ],
    "bufferViews" : [
        {
            "buffer" : 0,
            "byteLength" : 840,
            "byteOffset" : 0
        },
        {
            "buffer" : 0,
            "byteLength" : 840,
            "byteOffset" : 840
        },
        {
            "buffer" : 0,
            "byteLength" : 560,
            "byteOffset" : 1680
        },
        {
            "buffer" : 0,
            "byteLength" : 264,
            "byteOffset" : 2240
        },
        {
            "buffer" : 0,
            "byteLength" : 696,
            "byteOffset" : 2504
        },
        {
            "buffer" : 0,
            "byteLength" : 696,
            "byteOffset" : 3200
        },
        {
            "buffer" : 0,
            "byteLength" : 464,
            "byteOffset" : 3896
        },
        {
            "buffer" : 0,
            "byteLength" : 264,
            "byteOffset" : 4360
        },
        {
            "buffer" : 0,
            "byteLength" : 696,
            "byteOffset" : 4624
        },
        {
            "buffer" : 0,
            "byteLength" : 696,
            "byteOffset" : 5320
        },
        {
            "buffer" : 0,
            "byteLength" : 464,
            "byteOffset" : 6016
        },
        {
            "buffer" : 0,
            "byteLength" : 264,
            "byteOffset" : 6480
        },
        {
            "buffer" : 0,
            "byteLength" : 10524,
            "byteOffset" : 6744
        },
        {
            "buffer" : 0,
            "byteLength" : 10524,
            "byteOffset" : 17268
        },
        {
            "buffer" : 0,
            "byteLength" : 7016,
            "byteOffset" : 27792
        },
        {
            "buffer" : 0,
            "byteLength" : 5076,
            "byteOffset" : 34808
        },
        {
            "buffer" : 0,
            "byteLength" : 780,
            "byteOffset" : 39884
        },
        {
            "buffer" : 0,
            "byteLength" : 780,
            "byteOffset" : 40664
        },
        {
            "buffer" : 0,
            "byteLength" : 520,
            "byteOffset" : 41444
        },
        {
            "buffer" : 0,
            "byteLength" : 264,
            "byteOffset" : 41964
        },
        {
            "buffer" : 0,
            "byteLength" : 780,
            "byteOffset" : 42228
        },
        {
            "buffer" : 0,
            "byteLength" : 780,
            "byteOffset" : 43008
        },
        {
            "buffer" : 0,
            "byteLength" : 520,
            "byteOffset" : 43788
        }
    ],
    "buffers" : [
        {
            "byteLength" : 44308,
            "uri" : "data:application/octet-stream;base64,"
        }
    ]
}
