{
    "asset" : {
        "generator" : "Khronos glTF Blender I/O v1.6.16",
        "version" : "2.0"
    },
    "scene" : 0,
    "scenes" : [
        {
            "name" : "Scene",
            "nodes" : [
                0,
                1,
                2,
                3,
                4,
                5,
                6,
                7,
                8,
                9
            ]
        }
    ],
    "nodes" : [
        {
            "name" : "Light.001",
            "rotation" : [
                1,
                0,
                0,
                0
            ],
            "scale" : [
                0,
                0,
                0
            ],
            "translation" : [
                0,
                -1.4175987243652344,
                0.2127985656261444
            ]
        },
        {
            "name" : "Camera.001",
            "rotation" : [
                0.483536034822464,
                0.33687159419059753,
                -0.20870360732078552,
                0.7804827094078064
            ],
            "scale" : [
                0.1367207169532776,
                0.16789521276950836,
                0.24571222066879272
            ],
            "translation" : [
                0.36119985580444336,
                4.8091020584106445,
                1.0810883045196533
            ]
        },
        {
            "mesh" : 0,
            "name" : "16639_12_Pane_Casement_Window-White_V1",
            "rotation" : [
                0.9999980926513672,
                0,
                0,
                0.0019781701266765594
            ],
            "scale" : [
                0.11573845148086548,
                0.18748193979263306,
                0.08674999326467514
            ],
            "translation" : [
                -0.8665945529937744,
                3.4690136909484863,
                0.3691368103027344
            ]
        },
        {
            "name" : "Light.002",
            "rotation" : [
                1,
                0,
                0,
                0
            ],
            "scale" : [
                0,
                0,
                0
            ],
            "translation" : [
                0,
                -1.4175987243652344,
                0.2127985656261444
            ]
        },
        {
            "name" : "Camera.002",
            "rotation" : [
                0.483536034822464,
                0.33687159419059753,
                -0.20870360732078552,
                0.7804827094078064
            ],
            "scale" : [
                0.1367207169532776,
                0.16789521276950836,
                0.24571222066879272
            ],
            "translation" : [
                0.36119985580444336,
                4.8091020584106445,
                1.0810883045196533
            ]
        },
        {
            "mesh" : 1,
            "name" : "16639_12_Pane_Casement_Window-White_V1.001",
            "rotation" : [
                0.9999980926513672,
                0,
                0,
                0.0019781701266765594
            ],
            "scale" : [
                0.11573845148086548,
                0.18748193979263306,
                0.08674999326467514
            ],
            "translation" : [
                -0.8665945529937744,
                3.4690136909484863,
                0.3691368103027344
            ]
        },
        {
            "name" : "Light.003",
            "rotation" : [
                0.16907575726509094,
                0.7558803558349609,
                -0.27217137813568115,
                0.570947527885437
            ],
            "translation" : [
                4.076245307922363,
                5.903861999511719,
                -1.0054539442062378
            ]
        },
        {
            "name" : "Camera.003",
            "rotation" : [
                0.483536034822464,
                0.33687159419059753,
                -0.20870360732078552,
                0.7804827094078064
            ],
            "translation" : [
                7.358891487121582,
                4.958309173583984,
                6.925790786743164
            ]
        },
        {
            "name" : "Light",
            "rotation" : [
                0.16907575726509094,
                0.7558803558349609,
                -0.27217137813568115,
                0.570947527885437
            ],
            "translation" : [
                4.076245307922363,
                5.903861999511719,
                -1.0054539442062378
            ]
        },
        {
            "name" : "Camera",
            "rotation" : [
                0.483536034822464,
                0.33687159419059753,
                -0.20870360732078552,
                0.7804827094078064
            ],
            "translation" : [
                7.358891487121582,
                4.958309173583984,
                6.925790786743164
            ]
        }
    ],
    "materials" : [
        {
            "doubleSided" : true,
            "name" : "Material.001",
            "pbrMetallicRoughness" : {
                "baseColorFactor" : [
                    0.7742689847946167,
                    0.6121505498886108,
                    0.2525272071361542,
                    1
                ],
                "metallicFactor" : 0,
                "roughnessFactor" : 0.5
            }
        },
        {
            "doubleSided" : true,
            "name" : "Silver_mat",
            "pbrMetallicRoughness" : {
                "baseColorFactor" : [
                    0.3108121454715729,
                    0.17563311755657196,
                    0.03133545070886612,
                    1
                ],
                "metallicFactor" : 0,
                "roughnessFactor" : 0.5
            }
        },
        {
            "doubleSided" : true,
            "name" : "Material.002",
            "pbrMetallicRoughness" : {
                "baseColorFactor" : [
                    0.5070630311965942,
                    0.32255586981773376,
                    0.11983548849821091,
                    1
                ],
                "metallicFactor" : 0,
                "roughnessFactor" : 0.5
            }
        },
        {
            "doubleSided" : true,
            "name" : "Material.003",
            "pbrMetallicRoughness" : {
                "baseColorFactor" : [
                    0.7356547117233276,
                    0.4460797905921936,
                    0.07605437934398651,
                    1
                ],
                "metallicFactor" : 0,
                "roughnessFactor" : 0.5
            }
        },
        {
            "doubleSided" : true,
            "name" : "Silver_mat.001",
            "pbrMetallicRoughness" : {
                "baseColorFactor" : [
                    0.3108121454715729,
                    0.17563311755657196,
                    0.03133545070886612,
                    1
                ],
                "metallicFactor" : 0,
                "roughnessFactor" : 0.5
            }
        },
        {
            "doubleSided" : true,
            "name" : "Material.004",
            "pbrMetallicRoughness" : {
                "baseColorFactor" : [
                    0.17886114120483398,
                    0.09565276652574539,
                    0.02037910185754299,
                    1
                ],
                "metallicFactor" : 0,
                "roughnessFactor" : 0.5
            }
        }
    ],
    "meshes" : [
        {
            "name" : "16639_12_Pane_Casement_Window-White_V1",
            "primitives" : [
                {
                    "attributes" : {
                        "POSITION" : 0,
                        "NORMAL" : 1,
                        "TEXCOORD_0" : 2
                    },
                    "indices" : 3,
                    "material" : 0
                },
                {
                    "attributes" : {
                        "POSITION" : 4,
                        "NORMAL" : 5,
                        "TEXCOORD_0" : 6
                    },
                    "indices" : 7,
                    "material" : 1
                },
                {
                    "attributes" : {
                        "POSITION" : 8,
                        "NORMAL" : 9,
                        "TEXCOORD_0" : 10
                    },
                    "indices" : 11,
                    "material" : 2
                }
            ]
        },
        {
            "name" : "16639_12_Pane_Casement_Window-White_V1.001",
            "primitives" : [
                {
                    "attributes" : {
                        "POSITION" : 12,
                        "NORMAL" : 13,
                        "TEXCOORD_0" : 14
                    },
                    "indices" : 15,
                    "material" : 3
                },
                {
                    "attributes" : {
                        "POSITION" : 16,
                        "NORMAL" : 17,
                        "TEXCOORD_0" : 18
                    },
                    "indices" : 7,
                    "material" : 4
                },
                {
                    "attributes" : {
                        "POSITION" : 19,
                        "NORMAL" : 20,
                        "TEXCOORD_0" : 21
                    },
                    "indices" : 11,
                    "material" : 5
                }
            ]
        }
    ],
    "accessors" : [
        {
            "bufferView" : 0,
            "componentType" : 5126,
            "count" : 3818,
            "max" : [
                24.024900436401367,
                20.460500717163086,
                1.938599944114685
            ],
            "min" : [
                -24.024999618530273,
                -20.460500717163086,
                -1.938599944114685
            ],
            "type" : "VEC3"
        },
        {
            "bufferView" : 1,
            "componentType" : 5126,
            "count" : 3818,
            "type" : "VEC3"
        },
        {
            "bufferView" : 2,
            "componentType" : 5126,
            "count" : 3818,
            "type" : "VEC2"
        },
        {
            "bufferView" : 3,
            "componentType" : 5123,
            "count" : 10008,
            "type" : "SCALAR"
        },
        {
            "bufferView" : 4,
            "componentType" : 5126,
            "count" : 24175,
            "max" : [
                21.07670021057129,
                16.924100875854492,
                1.6133999824523926
            ],
            "min" : [
                -20.95800018310547,
                -18.719999313354492,
                -0.9843999743461609
            ],
            "type" : "VEC3"
        },
        {
            "bufferView" : 5,
            "componentType" : 5126,
            "count" : 24175,
            "type" : "VEC3"
        },
        {
            "bufferView" : 6,
            "componentType" : 5126,
            "count" : 24175,
            "type" : "VEC2"
        },
        {
            "bufferView" : 7,
            "componentType" : 5123,
            "count" : 108933,
            "type" : "SCALAR"
        },
        {
            "bufferView" : 8,
            "componentType" : 5126,
            "count" : 40,
            "max" : [
                21.07670021057129,
                17.8927001953125,
                -0.7175999879837036
            ],
            "min" : [
                -20.95800018310547,
                -18.719999313354492,
                -0.7914999723434448
            ],
            "type" : "VEC3"
        },
        {
            "bufferView" : 9,
            "componentType" : 5126,
            "count" : 40,
            "type" : "VEC3"
        },
        {
            "bufferView" : 10,
            "componentType" : 5126,
            "count" : 40,
            "type" : "VEC2"
        },
        {
            "bufferView" : 11,
            "componentType" : 5123,
            "count" : 60,
            "type" : "SCALAR"
        },
        {
            "bufferView" : 12,
            "componentType" : 5126,
            "count" : 3849,
            "max" : [
                24.024900436401367,
                20.460500717163086,
                1.938599944114685
            ],
            "min" : [
                -24.024999618530273,
                -20.460500717163086,
                -1.938599944114685
            ],
            "type" : "VEC3"
        },
        {
            "bufferView" : 13,
            "componentType" : 5126,
            "count" : 3849,
            "type" : "VEC3"
        },
        {
            "bufferView" : 14,
            "componentType" : 5126,
            "count" : 3849,
            "type" : "VEC2"
        },
        {
            "bufferView" : 15,
            "componentType" : 5123,
            "count" : 10008,
            "type" : "SCALAR"
        },
        {
            "bufferView" : 16,
            "componentType" : 5126,
            "count" : 24175,
            "max" : [
                21.07670021057129,
                16.924100875854492,
                1.6133999824523926
            ],
            "min" : [
                -20.95800018310547,
                -18.719999313354492,
                -0.9843999743461609
            ],
            "type" : "VEC3"
        },
        {
            "bufferView" : 17,
            "componentType" : 5126,
            "count" : 24175,
            "type" : "VEC3"
        },
        {
            "bufferView" : 18,
            "componentType" : 5126,
            "count" : 24175,
            "type" : "VEC2"
        },
        {
            "bufferView" : 19,
            "componentType" : 5126,
            "count" : 40,
            "max" : [
                21.07670021057129,
                17.8927001953125,
                -0.7175999879837036
            ],
            "min" : [
                -20.95800018310547,
                -18.719999313354492,
                -0.7914999723434448
            ],
            "type" : "VEC3"
        },
        {
            "bufferView" : 20,
            "componentType" : 5126,
            "count" : 40,
            "type" : "VEC3"
        },
        {
            "bufferView" : 21,
            "componentType" : 5126,
            "count" : 40,
            "type" : "VEC2"
        }
    ],
    "bufferViews" : [
        {
            "buffer" : 0,
            "byteLength" : 45816,
            "byteOffset" : 0
        },
        {
            "buffer" : 0,
            "byteLength" : 45816,
            "byteOffset" : 45816
        },
        {
            "buffer" : 0,
            "byteLength" : 30544,
            "byteOffset" : 91632
        },
        {
            "buffer" : 0,
            "byteLength" : 20016,
            "byteOffset" : 122176
        },
        {
            "buffer" : 0,
            "byteLength" : 290100,
            "byteOffset" : 142192
        },
        {
            "buffer" : 0,
            "byteLength" : 290100,
            "byteOffset" : 432292
        },
        {
            "buffer" : 0,
            "byteLength" : 193400,
            "byteOffset" : 722392
        },
        {
            "buffer" : 0,
            "byteLength" : 217866,
            "byteOffset" : 915792
        },
        {
            "buffer" : 0,
            "byteLength" : 480,
            "byteOffset" : 1133660
        },
        {
            "buffer" : 0,
            "byteLength" : 480,
            "byteOffset" : 1134140
        },
        {
            "buffer" : 0,
            "byteLength" : 320,
            "byteOffset" : 1134620
        },
        {
            "buffer" : 0,
            "byteLength" : 120,
            "byteOffset" : 1134940
        },
        {
            "buffer" : 0,
            "byteLength" : 46188,
            "byteOffset" : 1135060
        },
        {
            "buffer" : 0,
            "byteLength" : 46188,
            "byteOffset" : 1181248
        },
        {
            "buffer" : 0,
            "byteLength" : 30792,
            "byteOffset" : 1227436
        },
        {
            "buffer" : 0,
            "byteLength" : 20016,
            "byteOffset" : 1258228
        },
        {
            "buffer" : 0,
            "byteLength" : 290100,
            "byteOffset" : 1278244
        },
        {
            "buffer" : 0,
            "byteLength" : 290100,
            "byteOffset" : 1568344
        },
        {
            "buffer" : 0,
            "byteLength" : 193400,
            "byteOffset" : 1858444
        },
        {
            "buffer" : 0,
            "byteLength" : 480,
            "byteOffset" : 2051844
        },
        {
            "buffer" : 0,
            "byteLength" : 480,
            "byteOffset" : 2052324
        },
        {
            "buffer" : 0,
            "byteLength" : 320,
            "byteOffset" : 2052804
        }
    ],
    "buffers" : [
        {
            "byteLength" : 2053124,
            "uri" : "data:application/octet-stream;base64,"
        }
    ]
}
